<?xml version="1.0" encoding="utf-8"?>
<!-- Generator: Adobe Illustrator 24.0.0, SVG Export Plug-In . SVG Version: 6.00 Build 0)  -->
<svg version="1.1" id="Capa_1" xmlns="http://www.w3.org/2000/svg" xmlns:xlink="http://www.w3.org/1999/xlink" x="0px" y="0px"
	 viewBox="0 0 150 30" style="enable-background:new 0 0 150 30;" xml:space="preserve">
<g>
	<g>
		<path d="M62.4,28.5h-2.8l-0.4-3.2c-1.7,2.3-3.9,3.4-6.8,3.4c-1.8,0-3.5-0.4-4.9-1.2c-1.4-0.8-2.6-2-3.4-3.5
			c-0.8-1.5-1.2-3.3-1.2-5.4c0-2,0.4-3.7,1.2-5.3c0.8-1.5,1.9-2.7,3.4-3.6c1.4-0.9,3.1-1.3,4.9-1.3c1.6,0,3,0.3,4.1,0.9
			c1.1,0.6,2,1.4,2.7,2.4V1.3h3.2V28.5z M58.4,22.4c0.5-1.1,0.8-2.3,0.8-3.7c0-1.4-0.3-2.7-0.8-3.8c-0.5-1.1-1.3-2-2.3-2.6
			c-1-0.6-2.1-0.9-3.4-0.9c-2,0-3.5,0.7-4.8,2c-1.2,1.4-1.8,3.1-1.8,5.3s0.6,3.9,1.8,5.3c1.2,1.4,2.8,2,4.8,2c1.3,0,2.4-0.3,3.4-0.9
			C57.1,24.3,57.9,23.5,58.4,22.4z"/>
		<path d="M70.5,9.7c1.4-0.8,3.1-1.3,4.9-1.3c1.8,0,3.4,0.4,4.8,1.1c1.4,0.7,2.5,1.8,3.3,3.3c0.8,1.4,1.2,3.1,1.3,5
			c0,0.3,0,0.7-0.1,1.4H69.3v0.3c0.1,1.9,0.6,3.5,1.8,4.7c1.1,1.2,2.6,1.7,4.5,1.7c1.4,0,2.6-0.4,3.6-1.1c1-0.7,1.7-1.7,2-3h3.2
			c-0.4,2-1.4,3.7-2.9,4.9c-1.6,1.3-3.5,1.9-5.7,1.9c-2,0-3.7-0.4-5.2-1.3c-1.5-0.8-2.6-2-3.4-3.6c-0.8-1.5-1.2-3.3-1.2-5.3
			c0-2,0.4-3.8,1.2-5.3C68,11.7,69.1,10.5,70.5,9.7z M79.6,12.6c-1.1-0.9-2.5-1.4-4.2-1.4c-1.5,0-2.8,0.5-4,1.5
			c-1.1,1-1.8,2.3-1.9,3.8h11.9C81.3,14.9,80.7,13.6,79.6,12.6z"/>
		<path d="M92.2,9.7c1.4-0.8,3.1-1.3,4.9-1.3c1.8,0,3.4,0.4,4.8,1.1s2.5,1.8,3.3,3.3c0.8,1.4,1.2,3.1,1.3,5c0,0.3,0,0.7-0.1,1.4
			H91.1v0.3c0.1,1.9,0.6,3.5,1.8,4.7c1.1,1.2,2.6,1.7,4.5,1.7c1.4,0,2.6-0.4,3.6-1.1c1-0.7,1.7-1.7,2-3h3.2c-0.4,2-1.4,3.7-2.9,4.9
			c-1.6,1.3-3.5,1.9-5.7,1.9c-2,0-3.7-0.4-5.2-1.3c-1.5-0.8-2.6-2-3.4-3.6c-0.8-1.5-1.2-3.3-1.2-5.3c0-2,0.4-3.8,1.2-5.3
			C89.7,11.7,90.8,10.5,92.2,9.7z M101.3,12.6c-1.1-0.9-2.5-1.4-4.2-1.4c-1.5,0-2.8,0.5-4,1.5c-1.1,1-1.8,2.3-1.9,3.8h11.9
			C103,14.9,102.4,13.6,101.3,12.6z"/>
		<path d="M127.9,17.4v11h-3.2V17.6c0-2-0.5-3.6-1.4-4.7c-0.9-1.1-2.3-1.6-4-1.6c-1.8,0-3.3,0.6-4.4,1.9c-1.1,1.3-1.6,3.1-1.6,5.3
			v9.9h-3.2V1.3h3.2v10.6c0.6-1,1.5-1.9,2.6-2.5c1.1-0.6,2.4-1,3.9-1c2.4,0,4.3,0.7,5.8,2.2S127.9,14.3,127.9,17.4z"/>
		<path d="M135.1,1.3v18l10-10.6h3.8l-7.6,8.1l8.1,11.7h-3.8l-6.6-9.4l-4,4.1v5.2h-3.2V1.3H135.1z"/>
	</g>
	<path style="fill:#FCCF00;" d="M24.6,16.5H4.5c-2.2,0-4-1.8-4-4v0c0-2.2,1.8-4,4-4h20.1c2.2,0,4,1.8,4,4v0
		C28.6,14.7,26.8,16.5,24.6,16.5z"/>
	<path style="fill:#90DB2C;" d="M32.6,28.6H12.6c-2.2,0-4-1.8-4-4v0c0-2.2,1.8-4,4-4h20.1c2.2,0,4,1.8,4,4v0
		C36.7,26.8,34.9,28.6,32.6,28.6z"/>
</g>
</svg>
