<?xml version="1.0" encoding="utf-8"?>
<!-- Generator: Adobe Illustrator 24.0.0, SVG Export Plug-In . SVG Version: 6.00 Build 0)  -->
<svg version="1.1" id="Capa_1" xmlns="http://www.w3.org/2000/svg" xmlns:xlink="http://www.w3.org/1999/xlink" x="0px" y="0px"
	 viewBox="0 0 200 181" style="enable-background:new 0 0 200 181;" xml:space="preserve">
<g>
	<polygon style="fill:#0071B8;" points="103.5,127.9 161.4,69.9 121.1,69.9 121.1,81.6 133,81.6 103.5,111.3 74,81.6 109.3,81.6 
		109.3,69.9 109.3,58.2 161.4,58.2 103.5,0.2 45.6,58.2 85.9,58.2 85.9,46.5 74,46.5 103.5,16.8 133,46.5 109.3,46.5 97.6,46.5 
		97.6,58.2 97.6,69.9 45.6,69.9 	"/>
	<g>
		<path d="M20.9,148h-6.8v18.4H7.3V148H0.5v-5.4h20.4V148z"/>
		<path d="M46.6,154.5c0,8.8-3.8,12.6-12.6,12.6c-8.8,0-12.6-3.8-12.6-12.6c0-8.8,3.8-12.6,12.6-12.6
			C42.9,141.9,46.6,145.6,46.6,154.5z M28.6,154.5c0,5.2,1.6,7.5,5.4,7.5c3.8,0,5.4-2.2,5.4-7.5c0-5.2-1.6-7.5-5.4-7.5
			C30.2,147,28.6,149.2,28.6,154.5z"/>
		<path d="M66.4,166.4H50v-23.8h6.8v18.7h9.5V166.4z"/>
		<path d="M75.9,147.3v4.4h9.5v4.8h-9.5v5.1h10.9v4.8H69.1v-23.8h17.7v4.8H75.9z"/>
		<path d="M111.7,142.5v23.8h-7.8L96.3,151v15.3h-6.5v-23.8h7.8l7.5,15.3v-15.3H111.7z"/>
		<path d="M134.8,148H128v18.4h-6.8V148h-6.8v-5.4h20.4V148z"/>
		<path d="M144.3,142.5v23.8h-6.8v-23.8H144.3z"/>
		<path d="M170.9,142.5v23.8h-7.8l-7.5-15.3v15.3h-6.5v-23.8h7.8l7.5,15.3v-15.3H170.9z"/>
		<path d="M199.5,154.5c0,8.8-3.8,12.6-12.6,12.6c-8.8,0-12.6-3.8-12.6-12.6c0-8.8,3.8-12.6,12.6-12.6
			C195.7,141.9,199.5,145.6,199.5,154.5z M181.5,154.5c0,5.2,1.6,7.5,5.4,7.5c3.8,0,5.4-2.2,5.4-7.5c0-5.2-1.6-7.5-5.4-7.5
			C183.1,147,181.5,149.2,181.5,154.5z"/>
	</g>
	<g>
		<g>
			<path style="fill:#96BBD3;" d="M2.6,173.3c0.6-0.3,1.3-0.5,2.1-0.5c0.9,0,1.7,0.2,2.3,0.7c0.6,0.5,1,1.1,1.2,1.9h-1
				c-0.2-0.5-0.5-1-0.9-1.3c-0.4-0.3-1-0.5-1.6-0.5c-0.6,0-1.1,0.1-1.5,0.4c-0.4,0.3-0.8,0.6-1,1.1c-0.2,0.5-0.4,1-0.4,1.6
				c0,0.6,0.1,1.1,0.4,1.6c0.2,0.5,0.6,0.8,1,1.1c0.4,0.3,1,0.4,1.5,0.4c0.6,0,1.2-0.2,1.6-0.5c0.4-0.3,0.7-0.7,0.9-1.3h1
				C8,179,7.6,179.6,7,180.1c-0.6,0.5-1.4,0.7-2.3,0.7c-0.8,0-1.5-0.2-2.1-0.5c-0.6-0.3-1.1-0.8-1.4-1.4c-0.3-0.6-0.5-1.3-0.5-2.1
				c0-0.8,0.2-1.5,0.5-2.1C1.5,174.1,2,173.6,2.6,173.3z"/>
			<path style="fill:#96BBD3;" d="M24.8,180.3c-0.6,0.3-1.3,0.5-2.1,0.5c-0.8,0-1.5-0.2-2.1-0.5c-0.6-0.3-1.1-0.8-1.4-1.4
				c-0.3-0.6-0.5-1.3-0.5-2.1c0-0.8,0.2-1.4,0.5-2.1c0.3-0.6,0.8-1.1,1.4-1.4c0.6-0.3,1.3-0.5,2.1-0.5c0.8,0,1.5,0.2,2.1,0.5
				c0.6,0.3,1.1,0.8,1.4,1.4c0.3,0.6,0.5,1.3,0.5,2.1c0,0.8-0.2,1.4-0.5,2.1C25.8,179.5,25.4,179.9,24.8,180.3z M21.1,179.5
				c0.4,0.3,1,0.4,1.5,0.4c0.6,0,1.1-0.1,1.5-0.4c0.4-0.3,0.8-0.6,1-1.1c0.2-0.5,0.4-1,0.4-1.6c0-0.6-0.1-1.1-0.4-1.6
				c-0.2-0.5-0.6-0.8-1-1.1c-0.4-0.3-1-0.4-1.5-0.4c-0.6,0-1.1,0.1-1.5,0.4c-0.4,0.3-0.8,0.6-1,1.1c-0.2,0.5-0.4,1-0.4,1.6
				c0,0.6,0.1,1.1,0.4,1.6C20.4,178.9,20.7,179.2,21.1,179.5z"/>
			<path style="fill:#96BBD3;" d="M37.5,172.9h1l4.5,6.1v-6.1h1v7.9h-1l-4.5-6.1v6.1h-1V172.9z"/>
			<path style="fill:#96BBD3;" d="M56.5,179.4c0.4,0.3,0.9,0.5,1.6,0.5c0.6,0,1-0.1,1.4-0.4c0.4-0.2,0.5-0.6,0.5-1
				c0-0.3-0.1-0.6-0.3-0.7c-0.2-0.2-0.4-0.3-0.8-0.4c-0.3-0.1-0.7-0.2-1.3-0.3c-0.8-0.1-1.5-0.4-2-0.7c-0.5-0.3-0.7-0.8-0.7-1.5
				c0-0.4,0.1-0.8,0.4-1.2c0.2-0.3,0.6-0.6,1-0.8c0.4-0.2,0.9-0.3,1.5-0.3c0.6,0,1.1,0.1,1.6,0.3c0.5,0.2,0.8,0.5,1.1,0.8
				c0.3,0.4,0.4,0.8,0.4,1.3h-1c-0.1-0.5-0.3-0.8-0.7-1.1c-0.4-0.3-0.8-0.4-1.4-0.4s-1,0.1-1.3,0.3c-0.3,0.2-0.5,0.5-0.5,1
				c0,0.3,0.1,0.5,0.3,0.7c0.2,0.2,0.4,0.3,0.7,0.4c0.3,0.1,0.7,0.2,1.3,0.3c0.8,0.1,1.5,0.4,2,0.7c0.5,0.3,0.8,0.8,0.8,1.5
				c0,0.4-0.1,0.8-0.4,1.2c-0.3,0.4-0.6,0.6-1.1,0.8c-0.5,0.2-1,0.3-1.6,0.3c-0.7,0-1.2-0.1-1.7-0.3c-0.5-0.2-0.9-0.5-1.1-0.9
				c-0.3-0.4-0.4-0.9-0.4-1.4h1C55.8,178.7,56.1,179.1,56.5,179.4z"/>
			<path style="fill:#96BBD3;" d="M77.8,172.9v0.9h-2.7v7h-1v-7h-2.7v-0.9H77.8z"/>
			<path style="fill:#96BBD3;" d="M93.1,173.2c0.4,0.2,0.8,0.5,1,0.8c0.2,0.4,0.3,0.8,0.3,1.3c0,0.5-0.2,1-0.5,1.4
				c-0.3,0.4-0.8,0.7-1.3,0.8l1.9,3.2h-1.2l-1.7-3h-2.2v3h-1v-7.9h3.2C92.2,172.9,92.7,173,93.1,173.2z M91.5,176.8
				c0.6,0,1-0.1,1.3-0.4s0.5-0.6,0.5-1.1c0-0.5-0.2-0.8-0.5-1.1c-0.3-0.3-0.8-0.4-1.3-0.4h-2.1v3H91.5z"/>
			<path style="fill:#96BBD3;" d="M106.2,177.4c0,1.6,0.7,2.5,2.2,2.5c1.5,0,2.2-0.8,2.2-2.5v-4.6h1v4.5c0,1.1-0.3,2-0.8,2.6
				c-0.5,0.6-1.3,0.9-2.4,0.9s-1.8-0.3-2.4-0.9s-0.8-1.4-0.8-2.6v-4.5h1V177.4z"/>
			<path style="fill:#96BBD3;" d="M124.2,173.3c0.6-0.3,1.3-0.5,2.1-0.5c0.9,0,1.7,0.2,2.3,0.7c0.6,0.5,1,1.1,1.2,1.9h-1
				c-0.2-0.5-0.5-1-0.9-1.3c-0.4-0.3-1-0.5-1.6-0.5c-0.6,0-1.1,0.1-1.5,0.4c-0.4,0.3-0.8,0.6-1,1.1c-0.2,0.5-0.4,1-0.4,1.6
				c0,0.6,0.1,1.1,0.4,1.6c0.2,0.5,0.6,0.8,1,1.1c0.4,0.3,1,0.4,1.5,0.4c0.6,0,1.2-0.2,1.6-0.5c0.4-0.3,0.7-0.7,0.9-1.3h1
				c-0.2,0.8-0.6,1.5-1.2,1.9c-0.6,0.5-1.4,0.7-2.3,0.7c-0.8,0-1.5-0.2-2.1-0.5c-0.6-0.3-1.1-0.8-1.4-1.4c-0.3-0.6-0.5-1.3-0.5-2.1
				c0-0.8,0.2-1.5,0.5-2.1C123.1,174.1,123.6,173.6,124.2,173.3z"/>
			<path style="fill:#96BBD3;" d="M146.6,172.9v0.9h-2.7v7h-1v-7h-2.7v-0.9H146.6z"/>
			<path style="fill:#96BBD3;" d="M163,180.3c-0.6,0.3-1.3,0.5-2.1,0.5c-0.8,0-1.5-0.2-2.1-0.5s-1.1-0.8-1.4-1.4
				c-0.3-0.6-0.5-1.3-0.5-2.1c0-0.8,0.2-1.4,0.5-2.1c0.3-0.6,0.8-1.1,1.4-1.4s1.3-0.5,2.1-0.5c0.8,0,1.5,0.2,2.1,0.5
				c0.6,0.3,1.1,0.8,1.4,1.4c0.3,0.6,0.5,1.3,0.5,2.1c0,0.8-0.2,1.4-0.5,2.1C164,179.5,163.6,179.9,163,180.3z M159.3,179.5
				c0.4,0.3,1,0.4,1.5,0.4c0.6,0,1.1-0.1,1.5-0.4c0.4-0.3,0.8-0.6,1-1.1c0.2-0.5,0.4-1,0.4-1.6c0-0.6-0.1-1.1-0.4-1.6
				c-0.2-0.5-0.6-0.8-1-1.1c-0.4-0.3-1-0.4-1.5-0.4c-0.6,0-1.1,0.1-1.5,0.4c-0.4,0.3-0.8,0.6-1,1.1c-0.2,0.5-0.4,1-0.4,1.6
				c0,0.6,0.1,1.1,0.4,1.6C158.5,178.9,158.9,179.2,159.3,179.5z"/>
			<path style="fill:#96BBD3;" d="M180.4,173.2c0.4,0.2,0.8,0.5,1,0.8c0.2,0.4,0.3,0.8,0.3,1.3c0,0.5-0.2,1-0.5,1.4
				c-0.3,0.4-0.8,0.7-1.3,0.8l1.9,3.2h-1.2l-1.7-3h-2.2v3h-1v-7.9h3.2C179.4,172.9,179.9,173,180.4,173.2z M178.8,176.8
				c0.6,0,1-0.1,1.3-0.4c0.3-0.3,0.5-0.6,0.5-1.1c0-0.5-0.2-0.8-0.5-1.1c-0.3-0.3-0.8-0.4-1.3-0.4h-2.1v3H178.8z"/>
			<path style="fill:#96BBD3;" d="M195,172.9h1.2l3.2,7.9h-1.1l-0.9-2.1h-3.7l-0.9,2.1h-1.1L195,172.9z M197.1,177.7l-1.5-3.8
				l-1.5,3.8H197.1z"/>
		</g>
	</g>
</g>
</svg>
